#!OML:ASF F:\VICON\USERDATA\INSTALL\rory3\rory3.ASF
:FULLY-SPECIFIED
:DEGREES
939
root -2.91027 24.9932 -3.88273 -183.413 -177.117 185.554
lowerback 12.4188 1.82704 -2.30567
upperback 3.6225 2.06241 -1.68653
thorax -3.17766 1.02901 -0.765484
lowerneck -7.19459 -0.280637 -8.45702
upperneck 31.2379 -0.54298 6.04586
head 11.3186 -0.504227 3.66473
rclavicle 1.28216e-014 -7.15625e-015
rhumerus -28.3075 3.03772 -80.8713
rradius 41.5031
rwrist 9.75524
rhand -21.2681 -2.04262
rfingers 7.12502
rthumb 5.11549 -31.9609
lclavicle 1.28216e-014 -7.15625e-015
lhumerus -32.0183 17.2764 76.4302
lradius 30.2469
lwrist 1.65082
lhand -24.5736 22.1933
lfingers 7.12502
lthumb 1.92334 52.1644
rfemur -17.3962 9.68691 22.4763
rtibia 49.1193
rfoot -24.7126 -3.47396
rtoes 9.51506
lfemur -41.3684 11.5536 -22.1317
ltibia 72.2696
lfoot -4.036 3.65963
ltoes -17.2801
940
root -2.90956 24.9745 -3.85552 -183.477 -176.942 185.592
lowerback 12.5358 1.84206 -2.26969
upperback 3.56935 2.08004 -1.70169
thorax -3.29525 1.03817 -0.809401
lowerneck -7.07251 -0.299773 -8.76445
upperneck 31.0533 -0.639746 6.44606
head 11.2286 -0.536341 3.85084
rclavicle -2.9122e-014 3.29983e-014
rhumerus -28.3438 3.1914 -80.8988
rradius 41.5904
rwrist 9.8774
rhand -20.8796 -2.43706
rfingers 7.12502
rthumb 5.49061 -32.3459
lclavicle -2.9122e-014 3.29983e-014
lhumerus -32.2656 17.252 76.3146
lradius 30.1032
lwrist 1.67501
lhand -24.4584 22.6408
lfingers 7.12502
lthumb 2.03468 52.6108
rfemur -17.4324 9.70749 22.4548
rtibia 49.4759
rfoot -24.9773 -3.2623
rtoes 9.75043
lfemur -40.9548 11.5508 -22.3206
ltibia 70.0607
lfoot -3.14152 3.80991
ltoes -17.0292
941
root -2.9104 24.9519 -3.82774 -183.558 -176.761 185.674
lowerback 12.6072 1.87089 -2.33594
upperback 3.55514 2.10485 -1.74048
thorax -3.34991 1.0508 -0.819265
lowerneck -7.0454 -0.324722 -8.73243
upperneck 30.9619 -0.703049 6.50928
head 11.1924 -0.553674 3.85823
rclavicle -1.97294e-014 2.56432e-014
rhumerus -28.2903 3.26815 -80.9891
rradius 41.6489
rwrist 9.77886
rhand -21.9869 -1.22437
rfingers 7.12502
rthumb 4.42139 -31.1582
lclavicle -1.97294e-014 2.56432e-014
lhumerus -32.4449 17.1942 76.1663
lradius 29.9602
lwrist 1.65138
lhand -24.4989 22.6776
lfingers 7.12502
lthumb 1.99554 52.6481
rfemur -17.4432 9.71985 22.3964
rtibia 49.8386
rfoot -25.2167 -3.05412
rtoes 10.1368
lfemur -40.4987 11.5652 -22.5327
ltibia 67.8936
lfoot -2.10577 4.10899
ltoes -16.4667
942
root -2.91141 24.926 -3.79796 -183.528 -176.658 185.797
lowerback 12.4677 1.85218 -2.47467
upperback 3.54252 2.06618 -1.78175
thorax -3.29006 1.03189 -0.773905
lowerneck -6.93149 -0.218711 -8.44851
upperneck 31.0433 -0.534802 6.22953
head 11.1857 -0.479829 3.72306
rclavicle 4.12975e-014 -4.35338e-014
rhumerus -28.3021 3.5123 -81.1591
rradius 41.8008
rwrist 9.00667
rhand -23.7663 1.77199
rfingers 7.12502
rthumb 2.70305 -28.1906
lclavicle 4.12975e-014 -4.35338e-014
lhumerus -32.6373 17.2723 75.9695
lradius 29.7738
lwrist 1.61374
lhand -24.5817 22.1584
lfingers 7.12502
lthumb 1.91558 52.1296
rfemur -17.5681 9.68035 22.2772
rtibia 50.2029
rfoot -25.4413 -2.88901
rtoes 10.6606
lfemur -40.1671 11.552 -22.8524
ltibia 65.7862
lfoot -0.913082 4.70946
ltoes -15.85
943
root -2.91015 24.8995 -3.76502 -183.542 -176.537 185.832
lowerback 12.2918 1.82784 -2.48334
upperback 3.59957 2.04155 -1.78194
thorax -3.13466 1.01877 -0.758157
lowerneck -7.03315 -0.160051 -8.35963
upperneck 31.1713 -0.424395 6.10057
head 11.247 -0.435872 3.67654
rclavicle 9.54166e-015 7.55382e-015
rhumerus -28.2483 3.61614 -81.1994
rradius 42.0244
rwrist 8.98201
rhand -23.5162 1.78021
rfingers 7.12502
rthumb 2.94457 -28.1792
lclavicle 9.54166e-015 7.55382e-015
lhumerus -32.7872 17.4181 75.8171
lradius 29.5908
lwrist 1.57328
lhand -24.6582 21.9706
lfingers 7.12502
lthumb 1.84168 51.9424
rfemur -17.6097 9.69749 22.2647
rtibia 50.553
rfoot -25.7596 -2.89927
rtoes 10.2476
lfemur -39.7406 11.5846 -23.0958
ltibia 63.7623
lfoot 0.188822 5.41793
ltoes -15.2053
944
root -2.90933 24.8776 -3.73129 -183.603 -176.374 185.964
lowerback 12.2276 1.82417 -2.56933
upperback 3.63534 2.02792 -1.82725
thorax -3.06338 1.01165 -0.752077
lowerneck -7.33871 -0.142775 -8.35639
upperneck 31.3622 -0.39674 6.15683
head 11.3809 -0.417384 3.7102
rclavicle -1.3244e-014 2.16675e-014
rhumerus -28.1377 3.59892 -81.2057
rradius 42.212
rwrist 9.7495
rhand -21.9531 -0.304572
rfingers 7.12502
rthumb 4.45409 -30.2377
lclavicle -1.3244e-014 2.16675e-014
lhumerus -32.9267 17.6594 75.5876
lradius 29.3474
lwrist 1.30628
lhand -24.5148 21.8824
lfingers 7.12502
lthumb 1.98015 51.853
rfemur -17.6085 9.7801 22.1501
rtibia 50.8938
rfoot -26.0464 -2.84099
rtoes 10.3038
lfemur -39.2153 11.6071 -23.4003
ltibia 61.7695
lfoot 1.39966 6.02226
ltoes -15.2224
945
root -2.91131 24.8532 -3.69794 -183.626 -176.171 186.133
lowerback 12.1765 1.84384 -2.72651
upperback 3.583 2.03331 -1.88012
thorax -3.09345 1.01496 -0.719168
lowerneck -7.41136 -0.191705 -8.46664
upperneck 31.4211 -0.484642 6.29351
head 11.4264 -0.455439 3.77427
rclavicle 2.43014e-014 -5.1684e-015
rhumerus -28.1994 3.84957 -81.362
rradius 42.2349
rwrist 9.05774
rhand -22.9865 1.36249
rfingers 7.12502
rthumb 3.45611 -28.5892
lclavicle 2.43014e-014 -5.1684e-015
lhumerus -33.1734 17.9778 75.2912
lradius 29.0541
lwrist 1.00471
lhand -24.4691 21.7308
lfingers 7.12502
lthumb 2.02429 51.7009
rfemur -17.6739 9.95059 22.0255
rtibia 51.2358
rfoot -26.2499 -2.90386
rtoes 10.1832
lfemur -38.7269 11.6744 -23.7177
ltibia 59.8208
lfoot 2.49821 6.60983
ltoes -14.8288
946
root -2.91138 24.8248 -3.66017 -183.668 -175.961 186.25
lowerback 12.0802 1.89719 -2.77828
upperback 3.52066 2.09778 -1.93563
thorax -3.10624 1.04749 -0.755509
lowerneck -7.24897 -0.201295 -8.32549
upperneck 31.497 -0.490834 6.12129
head 11.4247 -0.465162 3.68453
rclavicle -3.13086e-015 -1.72943e-014
rhumerus -28.3486 3.85604 -81.4146
rradius 42.3473
rwrist 8.90807
rhand -23.9289 2.89034
rfingers 7.12502
rthumb 2.546 -27.0742
lclavicle -3.13086e-015 -1.72943e-014
lhumerus -33.4696 18.3742 74.9619
lradius 28.7624
lwrist 0.600863
lhand -24.5039 21.5463
lfingers 7.12502
lthumb 1.99074 51.5168
rfemur -17.6731 10.1168 21.965
rtibia 51.5967
rfoot -26.8961 -2.81037
rtoes 11.5801
lfemur -38.2058 11.8303 -24.0046
ltibia 57.9267
lfoot 3.17723 7.69977
ltoes -11.0572
947
root -2.91188 24.7925 -3.62169 -183.743 -175.837 186.317
lowerback 11.9667 1.89369 -2.8227
upperback 3.47232 2.0905 -1.96083
thorax -3.09526 1.04422 -0.752881
lowerneck -6.71863 0.087817 -7.95983
upperneck 31.3512 -0.118953 5.89848
head 11.226 -0.282514 3.56564
rclavicle 1.29707e-014 -4.17448e-015
rhumerus -28.5103 3.88973 -81.457
rradius 42.58
rwrist 9.05159
rhand -23.8741 3.00011
rfingers 7.12502
rthumb 2.59891 -26.9638
lclavicle 1.29707e-014 -4.17448e-015
lhumerus -33.8215 18.5726 74.6818
lradius 28.5412
lwrist 0.415868
lhand -24.5438 21.3777
lfingers 7.12502
lthumb 1.9522 51.3486
rfemur -17.6252 10.2304 21.9655
rtibia 51.9741
rfoot -27.2813 -2.84906
rtoes 11.3065
lfemur -37.6434 11.9141 -24.2346
ltibia 56.0956
lfoot 4.15373 8.4163
ltoes -9.86713
948
root -2.9122 24.7585 -3.58533 -183.794 -175.814 186.552
lowerback 11.8281 1.84496 -3.03926
upperback 3.43879 2.00196 -2.06431
thorax -3.05702 1.00087 -0.722312
lowerneck -6.81801 -0.0104764 -8.18638
upperneck 31.3976 -0.332031 6.29108
head 11.2796 -0.361772 3.73247
rclavicle 1.08338e-014 2.28602e-014
rhumerus -28.6082 3.87429 -81.5821
rradius 42.8002
rwrist 9.4755
rhand -24.3307 3.43663
rfingers 7.12502
rthumb 2.15798 -26.5322
lclavicle 1.08338e-014 2.28602e-014
lhumerus -34.191 18.5658 74.4012
lradius 28.4628
lwrist 0.433575
lhand -24.5234 21.7171
lfingers 7.12502
lthumb 1.9719 51.6877
rfemur -17.6385 10.2971 21.7682
rtibia 52.3619
rfoot -27.775 -2.9202
rtoes 11.0787
lfemur -37.0991 11.8819 -24.6691
ltibia 54.3205
lfoot 5.37277 8.7137
ltoes -11.3677
949
root -2.91318 24.7258 -3.54941 -183.81 -175.769 186.886
lowerback 11.6412 1.79547 -3.35914
upperback 3.47915 1.90538 -2.18909
thorax -2.91709 0.952328 -0.651974
lowerneck -7.16168 -0.0362919 -8.07597
upperneck 31.5267 -0.333314 6.17552
head 11.4013 -0.362714 3.67775
rclavicle -4.39811e-015 2.72335e-014
rhumerus -28.547 3.93924 -81.6979
rradius 42.9991
rwrist 9.8372
rhand -24.8533 3.53424
rfingers 7.12502
rthumb 1.65326 -26.4391
lclavicle -4.39811e-015 2.72335e-014
lhumerus -34.3149 18.8845 74.0985
lradius 28.2812
lwrist 0.300071
lhand -24.3971 22.0958
lfingers 7.12502
lthumb 2.09386 52.0653
rfemur -17.6733 10.4393 21.4806
rtibia 52.7612
rfoot -28.2143 -3.15034
rtoes 10.4787
lfemur -36.5944 11.8426 -25.2082
ltibia 52.5891
lfoot 6.5695 9.02877
ltoes -12.6974
950
root -2.91396 24.6959 -3.51132 -183.866 -175.625 187.14
lowerback 11.5066 1.78061 -3.62769
upperback 3.48041 1.85941 -2.26425
thorax -2.84689 0.929185 -0.568903
lowerneck -7.4549 -0.0132674 -8.05671
upperneck 31.7652 -0.25224 6.0612
head 11.5499 -0.339217 3.65216
rclavicle 3.67006e-014 1.59028e-015
rhumerus -28.609 4.18366 -81.8404
rradius 43.1138
rwrist 9.31993
rhand -24.6019 3.42174
rfingers 7.12502
rthumb 1.89609 -26.5496
lclavicle 3.67006e-014 1.59028e-015
lhumerus -34.4833 19.0765 73.8657
lradius 28.0793
lwrist 0.420246
lhand -24.4552 22.3557
lfingers 7.12502
lthumb 2.03778 52.3257
rfemur -17.6689 10.7168 21.3027
rtibia 53.1662
rfoot -28.62 -3.12777
rtoes 11.4556
lfemur -36.0161 11.8995 -25.6226
ltibia 50.8758
lfoot 7.62452 9.39196
ltoes -13.1089
951
root -2.914 24.6644 -3.47299 -183.997 -175.525 187.367
lowerback 11.4447 1.76901 -3.82376
upperback 3.49333 1.82256 -2.35351
thorax -2.80154 0.91057 -0.544629
lowerneck -7.2718 0.166623 -7.95826
upperneck 31.6017 -0.030398 6.07975
head 11.4264 -0.224548 3.65798
rclavicle 3.13086e-015 -3.77691e-014
rhumerus -28.5636 4.15532 -81.9134
rradius 43.0965
rwrist 9.31171
rhand -24.2583 3.12828
rfingers 7.12502
rthumb 2.22794 -26.8398
lclavicle 3.13086e-015 -3.77691e-014
lhumerus -34.6247 19.1255 73.6509
lradius 27.8571
lwrist 0.607958
lhand -24.4991 22.4071
lfingers 7.12502
lthumb 1.99538 52.3776
rfemur -17.631 10.9953 21.1663
rtibia 53.6122
rfoot -28.6794 -3.54771
rtoes 9.77525
lfemur -35.3357 11.896 -25.9749
ltibia 49.2155
lfoot 8.4626 9.87226
ltoes -12.4415
